<mxfile host="Electron" agent="Mozilla/5.0 (Macintosh; Intel Mac OS X 10_15_7) AppleWebKit/537.36 (KHTML, like Gecko) draw.io/27.0.5 Chrome/134.0.6998.205 Electron/35.3.0 Safari/537.36" version="27.0.5">
  <diagram name="Page-1" id="Ay99n7SPMmP9bPRBl8rm">
    <mxGraphModel dx="801" dy="844" grid="1" gridSize="10" guides="0" tooltips="1" connect="1" arrows="1" fold="1" page="0" pageScale="1" pageWidth="827" pageHeight="1169" background="none" math="0" shadow="0">
      <root>
        <mxCell id="0" />
        <mxCell id="1" parent="0" />
        <mxCell id="gv8ZjK5tmR7pMZCCxNFa-6" value="User Query" style="rounded=1;whiteSpace=wrap;html=1;" parent="1" vertex="1">
          <mxGeometry x="251" y="360" width="80" height="40" as="geometry" />
        </mxCell>
        <mxCell id="gv8ZjK5tmR7pMZCCxNFa-7" value="Query Response" style="rounded=1;whiteSpace=wrap;html=1;" parent="1" vertex="1">
          <mxGeometry x="251" y="449" width="80" height="40" as="geometry" />
        </mxCell>
        <mxCell id="gv8ZjK5tmR7pMZCCxNFa-8" value="LLM response generation" style="rounded=1;whiteSpace=wrap;html=1;" parent="1" vertex="1">
          <mxGeometry x="481" y="481" width="100" height="40" as="geometry" />
        </mxCell>
        <mxCell id="gv8ZjK5tmR7pMZCCxNFa-9" value="Citations" style="rounded=1;whiteSpace=wrap;html=1;" parent="1" vertex="1">
          <mxGeometry x="251" y="516" width="80" height="40" as="geometry" />
        </mxCell>
        <mxCell id="gv8ZjK5tmR7pMZCCxNFa-10" value="PDF Files" style="rounded=1;whiteSpace=wrap;html=1;" parent="1" vertex="1">
          <mxGeometry x="248" y="235" width="80" height="40" as="geometry" />
        </mxCell>
        <mxCell id="gv8ZjK5tmR7pMZCCxNFa-11" value="Text extraction" style="rounded=1;whiteSpace=wrap;html=1;" parent="1" vertex="1">
          <mxGeometry x="236" y="37" width="100" height="40" as="geometry" />
        </mxCell>
        <mxCell id="gv8ZjK5tmR7pMZCCxNFa-13" value="AWS Textract&amp;nbsp;&lt;span style=&quot;background-color: transparent; color: light-dark(rgb(0, 0, 0), rgb(255, 255, 255));&quot;&gt;extracts text + metadata&lt;/span&gt;" style="text;html=1;align=center;verticalAlign=middle;whiteSpace=wrap;rounded=0;" parent="1" vertex="1">
          <mxGeometry x="225" y="-3" width="120" height="30" as="geometry" />
        </mxCell>
        <mxCell id="gv8ZjK5tmR7pMZCCxNFa-14" value="Upload input documents" style="text;html=1;align=center;verticalAlign=middle;whiteSpace=wrap;rounded=0;" parent="1" vertex="1">
          <mxGeometry x="228" y="200" width="120" height="30" as="geometry" />
        </mxCell>
        <mxCell id="gv8ZjK5tmR7pMZCCxNFa-15" value="Sentence level chunking" style="text;html=1;align=center;verticalAlign=middle;whiteSpace=wrap;rounded=0;" parent="1" vertex="1">
          <mxGeometry x="553" y="2" width="120" height="30" as="geometry" />
        </mxCell>
        <mxCell id="gv8ZjK5tmR7pMZCCxNFa-16" value="Chunking" style="rounded=1;whiteSpace=wrap;html=1;" parent="1" vertex="1">
          <mxGeometry x="574" y="35" width="80" height="40" as="geometry" />
        </mxCell>
        <mxCell id="gv8ZjK5tmR7pMZCCxNFa-17" value="Embeddings" style="rounded=1;whiteSpace=wrap;html=1;" parent="1" vertex="1">
          <mxGeometry x="718" y="36" width="80" height="40" as="geometry" />
        </mxCell>
        <mxCell id="gv8ZjK5tmR7pMZCCxNFa-18" value="SentenceTransformers computes embeddings&amp;nbsp;&lt;div&gt;for each chunk&lt;/div&gt;" style="text;html=1;align=center;verticalAlign=middle;whiteSpace=wrap;rounded=0;" parent="1" vertex="1">
          <mxGeometry x="678" y="-16" width="162" height="52" as="geometry" />
        </mxCell>
        <mxCell id="gv8ZjK5tmR7pMZCCxNFa-19" value="Vector Database" style="rounded=1;whiteSpace=wrap;html=1;" parent="1" vertex="1">
          <mxGeometry x="862" y="37" width="80" height="40" as="geometry" />
        </mxCell>
        <mxCell id="gv8ZjK5tmR7pMZCCxNFa-20" value="Pinecone stores&amp;nbsp;&lt;div&gt;chunks + embeddings&amp;nbsp;&lt;/div&gt;&lt;div&gt;with document IDs&lt;/div&gt;" style="text;html=1;align=center;verticalAlign=middle;whiteSpace=wrap;rounded=0;" parent="1" vertex="1">
          <mxGeometry x="828" y="-15" width="152" height="52" as="geometry" />
        </mxCell>
        <mxCell id="gv8ZjK5tmR7pMZCCxNFa-22" value="Uses Anthropic model&amp;nbsp;&lt;div&gt;via Amazon Bedrock&amp;nbsp;&lt;/div&gt;" style="text;html=1;align=center;verticalAlign=middle;resizable=0;points=[];autosize=1;strokeColor=none;fillColor=none;" parent="1" vertex="1">
          <mxGeometry x="463" y="440" width="140" height="40" as="geometry" />
        </mxCell>
        <mxCell id="gv8ZjK5tmR7pMZCCxNFa-23" value="&amp;nbsp;Embeddings" style="rounded=1;whiteSpace=wrap;html=1;" parent="1" vertex="1">
          <mxGeometry x="482" y="360" width="90" height="40" as="geometry" />
        </mxCell>
        <mxCell id="gv8ZjK5tmR7pMZCCxNFa-24" value="Semantic Search" style="rounded=1;whiteSpace=wrap;html=1;" parent="1" vertex="1">
          <mxGeometry x="670" y="358" width="100" height="44" as="geometry" />
        </mxCell>
        <mxCell id="gv8ZjK5tmR7pMZCCxNFa-26" value="Find top-k similar chunks from&amp;nbsp;&lt;div&gt;Pinecone&lt;span style=&quot;background-color: transparent; color: light-dark(rgb(0, 0, 0), rgb(255, 255, 255));&quot;&gt;&amp;nbsp;using cosine similarity&lt;/span&gt;&lt;/div&gt;" style="text;html=1;align=center;verticalAlign=middle;resizable=0;points=[];autosize=1;strokeColor=none;fillColor=none;" parent="1" vertex="1">
          <mxGeometry x="632" y="316" width="190" height="40" as="geometry" />
        </mxCell>
        <mxCell id="gv8ZjK5tmR7pMZCCxNFa-27" value="Context Augmentation" style="rounded=1;whiteSpace=wrap;html=1;" parent="1" vertex="1">
          <mxGeometry x="676" y="482" width="90" height="40" as="geometry" />
        </mxCell>
        <mxCell id="gv8ZjK5tmR7pMZCCxNFa-28" value="User Query&amp;nbsp;&lt;div&gt;+ Context (retrieved chunks)&amp;nbsp;&lt;/div&gt;" style="text;html=1;align=center;verticalAlign=middle;resizable=0;points=[];autosize=1;strokeColor=none;fillColor=none;" parent="1" vertex="1">
          <mxGeometry x="631" y="441" width="180" height="40" as="geometry" />
        </mxCell>
        <mxCell id="gv8ZjK5tmR7pMZCCxNFa-32" value="User" style="shape=umlActor;verticalLabelPosition=bottom;verticalAlign=top;html=1;outlineConnect=0;" parent="1" vertex="1">
          <mxGeometry x="150" y="380" width="30" height="60" as="geometry" />
        </mxCell>
        <mxCell id="gv8ZjK5tmR7pMZCCxNFa-35" value="Extracted Text + Metadata Storage" style="rounded=1;whiteSpace=wrap;html=1;" parent="1" vertex="1">
          <mxGeometry x="400" y="37" width="110" height="40" as="geometry" />
        </mxCell>
        <mxCell id="gv8ZjK5tmR7pMZCCxNFa-36" value="Stores the extracted&amp;nbsp;&lt;span style=&quot;background-color: transparent; color: light-dark(rgb(0, 0, 0), rgb(255, 255, 255));&quot;&gt;text&amp;nbsp;&lt;/span&gt;&lt;div&gt;&lt;span style=&quot;background-color: transparent; color: light-dark(rgb(0, 0, 0), rgb(255, 255, 255));&quot;&gt;+ metadata in&amp;nbsp;&lt;/span&gt;&lt;div&gt;&lt;div&gt;S3 as JSON file&lt;/div&gt;&lt;/div&gt;&lt;/div&gt;" style="text;html=1;align=center;verticalAlign=middle;resizable=0;points=[];autosize=1;strokeColor=none;fillColor=none;" parent="1" vertex="1">
          <mxGeometry x="375" y="-19" width="160" height="60" as="geometry" />
        </mxCell>
        <mxCell id="gv8ZjK5tmR7pMZCCxNFa-39" value="" style="rounded=0;whiteSpace=wrap;html=1;fillColor=none;dashed=1;" parent="1" vertex="1">
          <mxGeometry x="140" y="160" width="220" height="420" as="geometry" />
        </mxCell>
        <mxCell id="gv8ZjK5tmR7pMZCCxNFa-41" value="" style="endArrow=classic;html=1;rounded=0;entryX=0;entryY=0.5;entryDx=0;entryDy=0;" parent="1" edge="1">
          <mxGeometry width="50" height="50" relative="1" as="geometry">
            <mxPoint x="190" y="420" as="sourcePoint" />
            <mxPoint x="250" y="380" as="targetPoint" />
          </mxGeometry>
        </mxCell>
        <mxCell id="gv8ZjK5tmR7pMZCCxNFa-42" value="" style="endArrow=classic;html=1;rounded=0;entryX=0;entryY=0.5;entryDx=0;entryDy=0;" parent="1" target="gv8ZjK5tmR7pMZCCxNFa-10" edge="1">
          <mxGeometry width="50" height="50" relative="1" as="geometry">
            <mxPoint x="190" y="420" as="sourcePoint" />
            <mxPoint x="260" y="390" as="targetPoint" />
          </mxGeometry>
        </mxCell>
        <mxCell id="gv8ZjK5tmR7pMZCCxNFa-43" value="&lt;b&gt;WEB APPLICATION&lt;/b&gt;" style="text;html=1;align=center;verticalAlign=middle;resizable=0;points=[];autosize=1;strokeColor=none;fillColor=none;" parent="1" vertex="1">
          <mxGeometry x="140" y="163" width="130" height="30" as="geometry" />
        </mxCell>
        <mxCell id="gv8ZjK5tmR7pMZCCxNFa-47" value="" style="endArrow=classic;html=1;rounded=0;exitX=1;exitY=0.5;exitDx=0;exitDy=0;" parent="1" source="gv8ZjK5tmR7pMZCCxNFa-11" target="gv8ZjK5tmR7pMZCCxNFa-35" edge="1">
          <mxGeometry width="50" height="50" relative="1" as="geometry">
            <mxPoint x="440" y="175" as="sourcePoint" />
            <mxPoint x="490" y="125" as="targetPoint" />
          </mxGeometry>
        </mxCell>
        <mxCell id="gv8ZjK5tmR7pMZCCxNFa-51" value="" style="endArrow=classic;html=1;rounded=0;exitX=1;exitY=0.5;exitDx=0;exitDy=0;" parent="1" edge="1">
          <mxGeometry width="50" height="50" relative="1" as="geometry">
            <mxPoint x="510" y="57" as="sourcePoint" />
            <mxPoint x="574" y="57" as="targetPoint" />
          </mxGeometry>
        </mxCell>
        <mxCell id="gv8ZjK5tmR7pMZCCxNFa-52" value="" style="endArrow=classic;html=1;rounded=0;exitX=1;exitY=0.5;exitDx=0;exitDy=0;" parent="1" edge="1">
          <mxGeometry width="50" height="50" relative="1" as="geometry">
            <mxPoint x="654" y="57" as="sourcePoint" />
            <mxPoint x="718" y="57" as="targetPoint" />
          </mxGeometry>
        </mxCell>
        <mxCell id="gv8ZjK5tmR7pMZCCxNFa-53" value="" style="endArrow=classic;html=1;rounded=0;exitX=1;exitY=0.5;exitDx=0;exitDy=0;" parent="1" edge="1">
          <mxGeometry width="50" height="50" relative="1" as="geometry">
            <mxPoint x="798" y="57" as="sourcePoint" />
            <mxPoint x="862" y="57" as="targetPoint" />
          </mxGeometry>
        </mxCell>
        <mxCell id="gv8ZjK5tmR7pMZCCxNFa-54" value="" style="endArrow=classic;html=1;rounded=0;exitX=1;exitY=0.5;exitDx=0;exitDy=0;entryX=0.5;entryY=1;entryDx=0;entryDy=0;" parent="1" source="gv8ZjK5tmR7pMZCCxNFa-10" target="gv8ZjK5tmR7pMZCCxNFa-11" edge="1">
          <mxGeometry width="50" height="50" relative="1" as="geometry">
            <mxPoint x="320" y="250" as="sourcePoint" />
            <mxPoint x="400" y="200" as="targetPoint" />
            <Array as="points">
              <mxPoint x="350" y="255" />
              <mxPoint x="350" y="150" />
              <mxPoint x="286" y="150" />
            </Array>
          </mxGeometry>
        </mxCell>
        <mxCell id="gv8ZjK5tmR7pMZCCxNFa-56" value="" style="edgeStyle=elbowEdgeStyle;elbow=vertical;endArrow=classic;html=1;curved=0;rounded=0;endSize=8;startSize=8;entryX=0.5;entryY=1;entryDx=0;entryDy=0;" parent="1" target="gv8ZjK5tmR7pMZCCxNFa-19" edge="1">
          <mxGeometry width="50" height="50" relative="1" as="geometry">
            <mxPoint x="610" y="77" as="sourcePoint" />
            <mxPoint x="590" y="225" as="targetPoint" />
            <Array as="points">
              <mxPoint x="760" y="115" />
            </Array>
          </mxGeometry>
        </mxCell>
        <mxCell id="gv8ZjK5tmR7pMZCCxNFa-57" value="" style="edgeStyle=elbowEdgeStyle;elbow=vertical;endArrow=classic;html=1;curved=0;rounded=0;endSize=8;startSize=8;exitX=1;exitY=0.75;exitDx=0;exitDy=0;entryX=1;entryY=0.5;entryDx=0;entryDy=0;" parent="1" source="gv8ZjK5tmR7pMZCCxNFa-24" target="gv8ZjK5tmR7pMZCCxNFa-27" edge="1">
          <mxGeometry width="50" height="50" relative="1" as="geometry">
            <mxPoint x="782" y="390" as="sourcePoint" />
            <mxPoint x="822" y="460" as="targetPoint" />
            <Array as="points">
              <mxPoint x="812" y="460" />
            </Array>
          </mxGeometry>
        </mxCell>
        <mxCell id="gv8ZjK5tmR7pMZCCxNFa-58" value="" style="endArrow=classic;html=1;rounded=0;entryX=0;entryY=0.5;entryDx=0;entryDy=0;exitX=1;exitY=0.5;exitDx=0;exitDy=0;" parent="1" edge="1">
          <mxGeometry width="50" height="50" relative="1" as="geometry">
            <mxPoint x="572" y="374" as="sourcePoint" />
            <mxPoint x="670" y="374" as="targetPoint" />
            <Array as="points" />
          </mxGeometry>
        </mxCell>
        <mxCell id="gv8ZjK5tmR7pMZCCxNFa-59" value="" style="endArrow=classic;html=1;rounded=0;exitX=1;exitY=0.5;exitDx=0;exitDy=0;" parent="1" edge="1">
          <mxGeometry width="50" height="50" relative="1" as="geometry">
            <mxPoint x="331" y="380" as="sourcePoint" />
            <mxPoint x="677" y="490" as="targetPoint" />
            <Array as="points">
              <mxPoint x="400" y="410" />
              <mxPoint x="620" y="410" />
              <mxPoint x="620" y="490" />
            </Array>
          </mxGeometry>
        </mxCell>
        <mxCell id="gv8ZjK5tmR7pMZCCxNFa-61" value="" style="endArrow=classic;html=1;rounded=0;exitX=-0.002;exitY=0.449;exitDx=0;exitDy=0;exitPerimeter=0;" parent="1" source="gv8ZjK5tmR7pMZCCxNFa-27" edge="1">
          <mxGeometry width="50" height="50" relative="1" as="geometry">
            <mxPoint x="672" y="500" as="sourcePoint" />
            <mxPoint x="582" y="500" as="targetPoint" />
          </mxGeometry>
        </mxCell>
        <mxCell id="gv8ZjK5tmR7pMZCCxNFa-62" value="" style="endArrow=classic;html=1;rounded=0;entryX=1;entryY=0.5;entryDx=0;entryDy=0;exitX=0;exitY=0.5;exitDx=0;exitDy=0;" parent="1" source="gv8ZjK5tmR7pMZCCxNFa-8" target="gv8ZjK5tmR7pMZCCxNFa-7" edge="1">
          <mxGeometry width="50" height="50" relative="1" as="geometry">
            <mxPoint x="330" y="490" as="sourcePoint" />
            <mxPoint x="380" y="440" as="targetPoint" />
          </mxGeometry>
        </mxCell>
        <mxCell id="gv8ZjK5tmR7pMZCCxNFa-63" value="" style="endArrow=classic;html=1;rounded=0;exitX=0;exitY=0.5;exitDx=0;exitDy=0;entryX=1;entryY=0.5;entryDx=0;entryDy=0;" parent="1" source="gv8ZjK5tmR7pMZCCxNFa-8" target="gv8ZjK5tmR7pMZCCxNFa-9" edge="1">
          <mxGeometry width="50" height="50" relative="1" as="geometry">
            <mxPoint x="330" y="490" as="sourcePoint" />
            <mxPoint x="380" y="440" as="targetPoint" />
          </mxGeometry>
        </mxCell>
        <mxCell id="gv8ZjK5tmR7pMZCCxNFa-64" value="+" style="text;html=1;align=center;verticalAlign=middle;resizable=0;points=[];autosize=1;strokeColor=none;fillColor=none;" parent="1" vertex="1">
          <mxGeometry x="275" y="487" width="30" height="30" as="geometry" />
        </mxCell>
        <mxCell id="gv8ZjK5tmR7pMZCCxNFa-66" value="" style="edgeStyle=elbowEdgeStyle;elbow=horizontal;endArrow=classic;html=1;curved=0;rounded=0;endSize=8;startSize=8;exitX=1;exitY=0.5;exitDx=0;exitDy=0;entryX=1;entryY=0.25;entryDx=0;entryDy=0;" parent="1" target="gv8ZjK5tmR7pMZCCxNFa-24" edge="1" source="gv8ZjK5tmR7pMZCCxNFa-19">
          <mxGeometry width="50" height="50" relative="1" as="geometry">
            <mxPoint x="942" y="87" as="sourcePoint" />
            <mxPoint x="728" y="375" as="targetPoint" />
            <Array as="points">
              <mxPoint x="1010" y="245" />
            </Array>
          </mxGeometry>
        </mxCell>
        <mxCell id="gv8ZjK5tmR7pMZCCxNFa-67" value="" style="endArrow=classic;html=1;rounded=0;entryX=0.5;entryY=0;entryDx=0;entryDy=0;exitX=0.5;exitY=1;exitDx=0;exitDy=0;" parent="1" source="gv8ZjK5tmR7pMZCCxNFa-17" target="gv8ZjK5tmR7pMZCCxNFa-23" edge="1">
          <mxGeometry width="50" height="50" relative="1" as="geometry">
            <mxPoint x="580" y="310" as="sourcePoint" />
            <mxPoint x="630" y="260" as="targetPoint" />
            <Array as="points">
              <mxPoint x="760" y="200" />
              <mxPoint x="527" y="200" />
            </Array>
          </mxGeometry>
        </mxCell>
        <mxCell id="gv8ZjK5tmR7pMZCCxNFa-68" value="" style="rounded=0;whiteSpace=wrap;html=1;fillColor=none;dashed=1;" parent="1" vertex="1">
          <mxGeometry x="410" y="280" width="450" height="300" as="geometry" />
        </mxCell>
        <mxCell id="gv8ZjK5tmR7pMZCCxNFa-69" value="&lt;b&gt;RETRIEVAL&lt;/b&gt;" style="text;html=1;align=center;verticalAlign=middle;resizable=0;points=[];autosize=1;strokeColor=none;fillColor=none;" parent="1" vertex="1">
          <mxGeometry x="422" y="290" width="90" height="30" as="geometry" />
        </mxCell>
        <mxCell id="gv8ZjK5tmR7pMZCCxNFa-70" value="" style="rounded=0;whiteSpace=wrap;html=1;fillColor=none;dashed=1;" parent="1" vertex="1">
          <mxGeometry x="170" y="-55" width="860" height="185" as="geometry" />
        </mxCell>
        <mxCell id="gv8ZjK5tmR7pMZCCxNFa-71" value="&lt;b&gt;INGESTION&lt;/b&gt;" style="text;html=1;align=center;verticalAlign=middle;resizable=0;points=[];autosize=1;strokeColor=none;fillColor=none;" parent="1" vertex="1">
          <mxGeometry x="180" y="-50" width="90" height="30" as="geometry" />
        </mxCell>
      </root>
    </mxGraphModel>
  </diagram>
</mxfile>
